<svg width="120" height="90" viewBox="0 0 120 90" fill="none" xmlns="http://www.w3.org/2000/svg">
<path d="M57.4024 1.08165C67.6881 0.0443904 79.2613 9.02666 82.0925 20.2232C82.5972 22.2168 82.8679 24.3208 82.8752 26.3806C82.9484 43.6536 82.8752 60.9192 82.9996 78.1922C83.0215 81.0759 82.1364 82.0764 79.2467 81.9955C72.9187 81.8189 66.5834 81.8631 60.2555 81.9808C57.9291 82.0249 56.9927 81.2893 57 78.8469C57.0659 53.6142 57.0586 28.3815 57.0878 3.15618C57.0878 2.44996 57.3 1.7511 57.4097 1.08902L57.4024 1.08165Z" fill="#005FF9"/>
<path d="M10.8886 31C25.0909 44.8966 38.9382 58.4446 53 72.1959C45.5216 80.8286 35.972 84.3645 24.7802 82.5276C12.4937 80.5092 4.3052 73.118 1.13187 61.3415C-2.06366 49.4634 1.60528 39.2697 10.896 31H10.8886Z" fill="#005FF9"/>
<path d="M4.07131 0.007201C14.2128 0.396863 23.9216 -0.0649482 33.3444 1.37103C43.4565 2.90803 51.3908 12.1661 52.7621 21.5469C53.356 25.595 53.0847 25.9414 49.0369 25.9414C35.361 25.9486 21.6924 25.8765 8.01644 25.9991C5.09059 26.028 3.90999 25.3353 4.00532 22.2108C4.22531 15.1391 4.07131 8.06024 4.07131 0V0.007201Z" fill="#005FF9"/>
<circle cx="103" cy="72" r="10" fill="#1B1B1C"/>
</svg>
