<svg width="139" height="123" viewBox="0 0 139 123" fill="none" xmlns="http://www.w3.org/2000/svg">
<path d="M70.4024 1.08165C80.6881 0.0443904 92.2613 9.02666 95.0925 20.2232C95.5972 22.2168 95.8679 24.3208 95.8752 26.3806C95.9484 43.6536 95.8752 60.9192 95.9996 78.1922C96.0216 81.0759 95.1364 82.0764 92.2467 81.9955C85.9187 81.8189 79.5834 81.8631 73.2555 81.9808C70.9291 82.0249 69.9927 81.2893 70 78.8469C70.0659 53.6142 70.0586 28.3815 70.0878 3.15618C70.0878 2.44996 70.3 1.7511 70.4097 1.08902L70.4024 1.08165Z" fill="#005FF9"/>
<path d="M23.8886 31C38.0909 44.8966 51.9382 58.4446 66 72.1959C58.5216 80.8286 48.972 84.3645 37.7802 82.5276C25.4937 80.5092 17.3052 73.118 14.1319 61.3415C10.9363 49.4634 14.6053 39.2697 23.896 31H23.8886Z" fill="#005FF9"/>
<path d="M17.0713 0.007201C27.2128 0.396863 36.9216 -0.0649482 46.3444 1.37103C56.4565 2.90803 64.3908 12.1661 65.762 21.5469C66.356 25.595 66.0847 25.9414 62.0369 25.9414C48.361 25.9486 34.6924 25.8765 21.0164 25.9991C18.0906 26.028 16.91 25.3353 17.0053 22.2108C17.2253 15.1391 17.0713 8.06024 17.0713 0V0.007201Z" fill="#005FF9"/>
<circle cx="116" cy="72" r="10" fill="#1B1B1C"/>
<path d="M0.35753 115L5.50916 99.8211H10.9368L16.0884 115H12.0407L8.40695 102.719H8.03898L4.40524 115H0.35753ZM3.41631 112.148V109.664H13.5816V112.148H3.41631ZM22.3132 115.299C20.8873 115.299 19.8371 114.923 19.1625 114.172C18.4878 113.405 18.1505 112.187 18.1505 110.515V105.755H16.4256L16.4946 102.88H17.7366C18.2272 102.865 18.5952 102.788 18.8405 102.65C19.1011 102.512 19.2621 102.251 19.3234 101.868L19.6224 100.166H21.7153V102.857H24.6361V105.87H21.7153V110.354C21.7153 110.876 21.8379 111.259 22.0832 111.504C22.3439 111.75 22.7349 111.872 23.2562 111.872C23.5475 111.872 23.8235 111.842 24.0841 111.78C24.3447 111.719 24.5594 111.635 24.7281 111.527V114.954C24.2374 115.107 23.7851 115.199 23.3712 115.23C22.9725 115.276 22.6199 115.299 22.3132 115.299ZM33.1063 115.322C32.0944 115.322 31.1898 115.192 30.3925 114.931C29.5952 114.655 28.9129 114.256 28.3456 113.735C27.7937 113.214 27.372 112.57 27.0807 111.803C26.7894 111.037 26.6437 110.155 26.6437 109.158C26.6437 108.192 26.7817 107.303 27.0577 106.491C27.349 105.678 27.7553 104.98 28.2766 104.398C28.8133 103.8 29.4649 103.34 30.2315 103.018C31.0134 102.696 31.8874 102.535 32.8533 102.535C33.8346 102.535 34.6932 102.696 35.4291 103.018C36.1804 103.325 36.7937 103.784 37.269 104.398C37.7596 105.011 38.1199 105.762 38.3499 106.652C38.5799 107.526 38.6565 108.53 38.5799 109.664L29.0816 109.733V107.802L36.464 107.733L35.1531 108.629C35.2605 107.863 35.2145 107.242 35.0151 106.767C34.8158 106.276 34.5245 105.923 34.1412 105.709C33.7579 105.479 33.3439 105.364 32.8993 105.364C32.3627 105.364 31.8874 105.509 31.4734 105.801C31.0748 106.092 30.7604 106.514 30.5305 107.066C30.3005 107.618 30.1855 108.292 30.1855 109.089C30.1855 110.347 30.4538 111.259 30.9904 111.826C31.5424 112.394 32.24 112.677 33.0833 112.677C33.4973 112.677 33.8422 112.624 34.1182 112.516C34.3942 112.394 34.6165 112.248 34.7852 112.079C34.9691 111.895 35.1071 111.696 35.1991 111.481C35.3065 111.267 35.3908 111.06 35.4521 110.86L38.6719 111.55C38.5492 112.118 38.3499 112.631 38.0739 113.091C37.8133 113.551 37.453 113.95 36.993 114.287C36.5484 114.624 36.0041 114.877 35.3601 115.046C34.7315 115.23 33.9802 115.322 33.1063 115.322ZM41.2917 115V98.4412H44.9255V115H41.2917ZM48.2649 115V102.857H51.9676V115H48.2649ZM50.1278 101.155C49.4225 101.155 48.8782 101.009 48.4949 100.718C48.1269 100.411 47.9429 99.9821 47.9429 99.4301C47.9429 98.8475 48.1269 98.4105 48.4949 98.1192C48.8782 97.8126 49.4225 97.6592 50.1278 97.6592C50.8484 97.6592 51.3927 97.8126 51.7606 98.1192C52.1439 98.4105 52.3356 98.8398 52.3356 99.4071C52.3356 99.9744 52.1439 100.411 51.7606 100.718C51.3927 101.009 50.8484 101.155 50.1278 101.155ZM61.078 115.322C60.0661 115.322 59.1615 115.192 58.3642 114.931C57.5669 114.655 56.8847 114.256 56.3174 113.735C55.7654 113.214 55.3438 112.57 55.0525 111.803C54.7611 111.037 54.6155 110.155 54.6155 109.158C54.6155 108.192 54.7535 107.303 55.0295 106.491C55.3208 105.678 55.7271 104.98 56.2484 104.398C56.785 103.8 57.4366 103.34 58.2032 103.018C58.9852 102.696 59.8591 102.535 60.825 102.535C61.8063 102.535 62.6649 102.696 63.4009 103.018C64.1521 103.325 64.7654 103.784 65.2407 104.398C65.7314 105.011 66.0917 105.762 66.3216 106.652C66.5516 107.526 66.6283 108.53 66.5516 109.664L57.0533 109.733V107.802L64.4358 107.733L63.1249 108.629C63.2322 107.863 63.1862 107.242 62.9869 106.767C62.7876 106.276 62.4963 105.923 62.1129 105.709C61.7296 105.479 61.3157 105.364 60.871 105.364C60.3344 105.364 59.8591 105.509 59.4451 105.801C59.0465 106.092 58.7322 106.514 58.5022 107.066C58.2722 107.618 58.1572 108.292 58.1572 109.089C58.1572 110.347 58.4255 111.259 58.9622 111.826C59.5141 112.394 60.2117 112.677 61.055 112.677C61.469 112.677 61.814 112.624 62.0899 112.516C62.3659 112.394 62.5882 112.248 62.7569 112.079C62.9409 111.895 63.0789 111.696 63.1709 111.481C63.2782 111.267 63.3625 111.06 63.4239 110.86L66.6436 111.55C66.521 112.118 66.3216 112.631 66.0457 113.091C65.785 113.551 65.4247 113.95 64.9647 114.287C64.5201 114.624 63.9758 114.877 63.3319 115.046C62.7032 115.23 61.952 115.322 61.078 115.322ZM69.2635 115V109.365V102.857H72.2992L72.3682 106.974H72.8282C72.9355 105.9 73.1348 105.049 73.4262 104.421C73.7328 103.777 74.1621 103.309 74.7141 103.018C75.2814 102.727 75.979 102.581 76.8069 102.581C76.9296 102.581 77.0676 102.589 77.2209 102.604C77.3742 102.604 77.5505 102.619 77.7498 102.65L77.6119 106.606C77.3665 106.483 77.0982 106.406 76.8069 106.376C76.5309 106.33 76.2856 106.307 76.071 106.307C75.473 106.307 74.9517 106.422 74.5071 106.652C74.0778 106.882 73.7328 107.234 73.4722 107.71C73.2268 108.185 73.0658 108.783 72.9892 109.503V115H69.2635ZM95.6183 115V99.8211H99.321V115H95.6183ZM85.729 115V99.8211H89.4317V115H85.729ZM87.9829 108.836V105.847H97.1132V108.836H87.9829ZM102.989 115V99.8211H108.531L112.487 110.745H112.602L116.466 99.8211H121.755V115H118.259L118.466 103.593H118.213L113.821 115H110.785L106.484 103.593H106.231L106.438 115H102.989ZM131.439 115.322C130.458 115.322 129.569 115.23 128.772 115.046C127.974 114.862 127.284 114.586 126.702 114.218C126.119 113.835 125.659 113.352 125.322 112.769C124.984 112.187 124.785 111.512 124.724 110.745L127.967 109.664C128.013 110.308 128.197 110.845 128.519 111.274C128.84 111.704 129.27 112.026 129.806 112.24C130.358 112.44 130.972 112.539 131.646 112.539C132.29 112.539 132.827 112.463 133.256 112.309C133.701 112.141 134.03 111.934 134.245 111.688C134.475 111.428 134.59 111.152 134.59 110.86C134.59 110.523 134.444 110.247 134.153 110.032C133.862 109.802 133.463 109.611 132.957 109.457C132.451 109.289 131.861 109.128 131.186 108.974C130.42 108.79 129.668 108.591 128.932 108.376C128.197 108.162 127.53 107.886 126.932 107.549C126.334 107.196 125.858 106.751 125.506 106.215C125.168 105.663 125 104.973 125 104.145C125 103.21 125.237 102.397 125.713 101.707C126.188 101.017 126.886 100.48 127.806 100.097C128.726 99.6984 129.86 99.4991 131.209 99.4991C132.543 99.4991 133.678 99.6908 134.613 100.074C135.548 100.457 136.269 100.994 136.775 101.684C137.281 102.359 137.557 103.148 137.603 104.053L134.291 104.996C134.291 104.551 134.214 104.16 134.061 103.823C133.923 103.485 133.724 103.21 133.463 102.995C133.203 102.765 132.881 102.596 132.497 102.489C132.114 102.366 131.677 102.305 131.186 102.305C130.604 102.305 130.105 102.374 129.691 102.512C129.293 102.65 128.994 102.834 128.795 103.064C128.595 103.279 128.496 103.531 128.496 103.823C128.496 104.191 128.649 104.497 128.955 104.743C129.277 104.973 129.707 105.172 130.243 105.341C130.795 105.494 131.401 105.647 132.06 105.801C132.72 105.939 133.402 106.115 134.107 106.33C134.812 106.529 135.472 106.797 136.085 107.135C136.698 107.472 137.189 107.932 137.557 108.514C137.94 109.082 138.132 109.802 138.132 110.676C138.132 111.612 137.879 112.432 137.373 113.137C136.882 113.827 136.139 114.364 135.142 114.747C134.145 115.13 132.911 115.322 131.439 115.322Z" fill="#005FF9"/>
</svg>
