<svg width="120" height="121" viewBox="0 0 120 121" fill="none" xmlns="http://www.w3.org/2000/svg">
<path d="M57.4024 1.08165C67.6881 0.0443904 79.2613 9.02666 82.0925 20.2232C82.5972 22.2168 82.8679 24.3208 82.8752 26.3806C82.9484 43.6536 82.8752 60.9192 82.9996 78.1922C83.0215 81.0759 82.1364 82.0764 79.2467 81.9955C72.9187 81.8189 66.5834 81.8631 60.2555 81.9808C57.9291 82.0249 56.9927 81.2893 57 78.8469C57.0659 53.6142 57.0586 28.3815 57.0878 3.15618C57.0878 2.44996 57.3 1.7511 57.4097 1.08902L57.4024 1.08165Z" fill="#005FF9"/>
<path d="M10.8886 31C25.0909 44.8966 38.9382 58.4446 53 72.1959C45.5216 80.8286 35.972 84.3645 24.7802 82.5276C12.4937 80.5092 4.3052 73.118 1.13187 61.3415C-2.06366 49.4634 1.60528 39.2697 10.896 31H10.8886Z" fill="#005FF9"/>
<path d="M4.07131 0.007201C14.2128 0.396863 23.9216 -0.0649482 33.3444 1.37103C43.4565 2.90803 51.3908 12.1661 52.7621 21.5469C53.356 25.595 53.0847 25.9414 49.0369 25.9414C35.361 25.9486 21.6924 25.8765 8.01644 25.9991C5.09059 26.028 3.90999 25.3353 4.00532 22.2108C4.22531 15.1391 4.07131 8.06024 4.07131 0V0.007201Z" fill="#005FF9"/>
<circle cx="103" cy="72" r="10" fill="#1B1B1C"/>
<path d="M1.58689 113V97.8211H5.35862V113H1.58689ZM8.84826 113V105.687V100.857H11.838L11.884 104.422H12.344C12.5433 103.563 12.827 102.842 13.1949 102.26C13.5629 101.677 14.0305 101.248 14.5978 100.972C15.1651 100.681 15.8321 100.535 16.5987 100.535C18.0246 100.535 19.1055 101.033 19.8415 102.03C20.5927 103.026 20.9684 104.613 20.9684 106.79V113H17.2427V107.204C17.2427 105.947 17.0587 105.035 16.6907 104.468C16.3381 103.885 15.8091 103.594 15.1038 103.594C14.5212 103.594 14.0382 103.77 13.6549 104.123C13.2869 104.475 13.011 104.943 12.827 105.526C12.643 106.108 12.551 106.76 12.551 107.48V113H8.84826ZM26.4864 113L22.5077 100.88H26.6244L28.9242 110.102H29.3152L31.661 100.88H35.5937L31.592 113H26.4864ZM43.1657 113.322C42.1538 113.322 41.2492 113.192 40.4519 112.931C39.6547 112.655 38.9724 112.256 38.4051 111.735C37.8531 111.214 37.4315 110.57 37.1402 109.803C36.8489 109.037 36.7032 108.155 36.7032 107.158C36.7032 106.192 36.8412 105.303 37.1172 104.491C37.4085 103.678 37.8148 102.98 38.3361 102.398C38.8727 101.8 39.5243 101.34 40.2909 101.018C41.0729 100.696 41.9468 100.535 42.9128 100.535C43.894 100.535 44.7526 100.696 45.4886 101.018C46.2399 101.325 46.8531 101.784 47.3284 102.398C47.8191 103.011 48.1794 103.762 48.4094 104.652C48.6393 105.526 48.716 106.53 48.6393 107.664L39.141 107.733V105.802L46.5235 105.733L45.2126 106.629C45.3199 105.863 45.2739 105.242 45.0746 104.767C44.8753 104.276 44.584 103.923 44.2007 103.709C43.8174 103.479 43.4034 103.364 42.9588 103.364C42.4221 103.364 41.9468 103.509 41.5329 103.801C41.1342 104.092 40.8199 104.514 40.5899 105.066C40.3599 105.618 40.245 106.292 40.245 107.089C40.245 108.347 40.5133 109.259 41.0499 109.826C41.6019 110.394 42.2995 110.677 43.1427 110.677C43.5567 110.677 43.9017 110.624 44.1777 110.516C44.4536 110.394 44.676 110.248 44.8446 110.079C45.0286 109.895 45.1666 109.696 45.2586 109.481C45.3659 109.267 45.4502 109.06 45.5116 108.86L48.7313 109.55C48.6087 110.118 48.4094 110.631 48.1334 111.091C47.8727 111.551 47.5124 111.95 47.0525 112.287C46.6078 112.624 46.0635 112.877 45.4196 113.046C44.791 113.23 44.0397 113.322 43.1657 113.322ZM51.3512 113V105.687V100.857H54.341L54.387 104.422H54.8469C55.0462 103.563 55.3299 102.842 55.6979 102.26C56.0658 101.677 56.5335 101.248 57.1008 100.972C57.6681 100.681 58.335 100.535 59.1016 100.535C60.5275 100.535 61.6084 101.033 62.3444 102.03C63.0957 103.026 63.4713 104.613 63.4713 106.79V113H59.7456V107.204C59.7456 105.947 59.5616 105.035 59.1936 104.468C58.841 103.885 58.312 103.594 57.6067 103.594C57.0241 103.594 56.5411 103.77 56.1578 104.123C55.7899 104.475 55.5139 104.943 55.3299 105.526C55.1459 106.108 55.0539 106.76 55.0539 107.48V113H51.3512ZM71.2821 113.299C69.8562 113.299 68.806 112.923 68.1313 112.172C67.4567 111.405 67.1194 110.187 67.1194 108.515V103.755H65.3945L65.4635 100.88H66.7054C67.1961 100.865 67.5641 100.788 67.8094 100.65C68.07 100.512 68.231 100.251 68.2923 99.8679L68.5913 98.1661H70.6842V100.857H73.605V103.87H70.6842V108.354C70.6842 108.876 70.8068 109.259 71.0521 109.504C71.3128 109.75 71.7038 109.872 72.2251 109.872C72.5164 109.872 72.7923 109.842 73.053 109.78C73.3136 109.719 73.5283 109.635 73.6969 109.527V112.954C73.2063 113.107 72.754 113.199 72.34 113.23C71.9414 113.276 71.5888 113.299 71.2821 113.299ZM81.8912 113.322C80.6646 113.322 79.576 113.084 78.6254 112.609C77.6902 112.134 76.9542 111.421 76.4176 110.47C75.881 109.52 75.6126 108.331 75.6126 106.905C75.6126 105.48 75.881 104.299 76.4176 103.364C76.9542 102.413 77.6978 101.708 78.6484 101.248C79.599 100.773 80.6876 100.535 81.9142 100.535C83.1408 100.535 84.2294 100.773 85.18 101.248C86.1306 101.723 86.8742 102.436 87.4108 103.387C87.9474 104.322 88.2157 105.503 88.2157 106.928C88.2157 108.385 87.9398 109.589 87.3878 110.539C86.8358 111.49 86.0769 112.195 85.111 112.655C84.1604 113.1 83.0871 113.322 81.8912 113.322ZM82.0062 110.631C82.5581 110.631 83.0181 110.509 83.3861 110.263C83.7541 110.003 84.03 109.612 84.214 109.09C84.398 108.569 84.49 107.925 84.49 107.158C84.49 106.346 84.3903 105.664 84.191 105.112C83.9917 104.544 83.6927 104.115 83.2941 103.824C82.9108 103.517 82.4125 103.364 81.7992 103.364C81.2779 103.364 80.8256 103.494 80.4423 103.755C80.0743 104 79.7983 104.383 79.6144 104.905C79.4304 105.426 79.3384 106.077 79.3384 106.859C79.3384 108.117 79.5684 109.06 80.0283 109.688C80.5036 110.317 81.1629 110.631 82.0062 110.631ZM90.8446 113V107.365V100.857H93.8803L93.9493 104.974H94.4093C94.5166 103.9 94.7159 103.049 95.0073 102.421C95.3139 101.777 95.7432 101.309 96.2952 101.018C96.8625 100.727 97.5601 100.581 98.388 100.581C98.5107 100.581 98.6487 100.589 98.802 100.604C98.9553 100.604 99.1316 100.619 99.3309 100.65L99.193 104.606C98.9476 104.483 98.6793 104.406 98.388 104.376C98.112 104.33 97.8667 104.307 97.6521 104.307C97.0541 104.307 96.5328 104.422 96.0882 104.652C95.6589 104.882 95.3139 105.234 95.0533 105.71C94.8079 106.185 94.6469 106.783 94.5703 107.503V113H90.8446ZM106.237 117.232C105.624 117.232 104.995 117.178 104.351 117.071C103.707 116.963 103.094 116.802 102.511 116.588C101.944 116.388 101.453 116.12 101.039 115.783L101.936 112.494C102.473 113 103.117 113.376 103.868 113.621C104.635 113.866 105.371 113.989 106.076 113.989C106.889 113.989 107.556 113.828 108.077 113.506C108.614 113.199 109.02 112.724 109.296 112.08C109.587 111.421 109.756 110.608 109.802 109.642L109.917 107.641H109.365C109.227 108.638 108.982 109.451 108.629 110.079C108.292 110.708 107.855 111.175 107.318 111.482C106.797 111.773 106.176 111.919 105.455 111.919C104.566 111.919 103.822 111.697 103.224 111.252C102.626 110.807 102.174 110.141 101.867 109.251C101.576 108.347 101.43 107.227 101.43 105.894V100.857H105.156V104.974C105.156 106.384 105.294 107.396 105.57 108.009C105.861 108.607 106.314 108.906 106.927 108.906C107.249 108.906 107.54 108.814 107.801 108.63C108.062 108.446 108.284 108.186 108.468 107.848C108.652 107.511 108.79 107.105 108.882 106.629C108.989 106.139 109.043 105.595 109.043 104.997V100.857H112.746V109.78C112.746 110.746 112.654 111.628 112.47 112.425C112.301 113.222 112.04 113.92 111.688 114.518C111.35 115.116 110.921 115.614 110.4 116.013C109.879 116.427 109.273 116.733 108.583 116.933C107.893 117.132 107.111 117.232 106.237 117.232Z" fill="#005FF9"/>
</svg>
